<svg xmlns="http://www.w3.org/2000/svg" xmlns:xlink="http://www.w3.org/1999/xlink" width="640" zoomAndPan="magnify" viewBox="0 0 480 299.999988" height="400" preserveAspectRatio="xMidYMid meet" version="1.0"><defs><filter x="0%" y="0%" width="100%" height="100%" id="c9fc1cb6b4"><feColorMatrix values="0 0 0 0 1 0 0 0 0 1 0 0 0 0 1 0 0 0 1 0" color-interpolation-filters="sRGB"/></filter><mask id="dd8c5e458b"><g filter="url(#c9fc1cb6b4)"><rect x="-48" width="576" fill="#000000" y="-29.999999" height="359.999986" fill-opacity="0.749"/></g></mask><clipPath id="63777a2e19"><path d="M 0 0 L 480 0 L 480 300 L 0 300 Z M 0 0 " clip-rule="nonzero"/></clipPath><clipPath id="14bf25e052"><rect x="0" width="480" y="0" height="300"/></clipPath><clipPath id="35276ad4f8"><path d="M 160 69.285156 L 365 69.285156 L 365 174 L 160 174 Z M 160 69.285156 " clip-rule="nonzero"/></clipPath><clipPath id="cfafd2dd5c"><path d="M 114.617188 112 L 321 112 L 321 230 L 114.617188 230 Z M 114.617188 112 " clip-rule="nonzero"/></clipPath></defs><rect x="-48" width="576" fill="#ffffff" y="-29.999999" height="359.999986" fill-opacity="1"/><rect x="-48" width="576" fill="#ffffff" y="-29.999999" height="359.999986" fill-opacity="1"/><rect x="-48" width="576" fill="#ffffff" y="-29.999999" height="359.999986" fill-opacity="1"/><g mask="url(#dd8c5e458b)"><g><g clip-path="url(#14bf25e052)"><g clip-path="url(#63777a2e19)"><rect x="-105.6" width="691.2" fill="#000000" height="431.999983" y="-65.999997" fill-opacity="1"/></g></g></g></g><path fill="#ffffff" d="M 190.539062 140.277344 C 190.535156 140.300781 190.535156 140.320312 190.535156 140.347656 C 190.546875 140.363281 190.550781 140.371094 190.5625 140.382812 C 190.5625 140.359375 190.558594 140.335938 190.558594 140.316406 C 190.550781 140.304688 190.546875 140.289062 190.539062 140.277344 Z M 190.539062 140.277344 " fill-opacity="1" fill-rule="nonzero"/><path fill="#ffffff" d="M 198.71875 146.941406 C 200.691406 143.121094 201.046875 138.316406 198.519531 134.65625 C 195.9375 130.914062 191.042969 129.230469 186.625 129.363281 C 167.898438 129.921875 158.5625 155.367188 172.46875 167.929688 C 180.105469 174.832031 191.371094 174.574219 199.128906 168.066406 C 201.152344 166.371094 200.878906 162.910156 199.128906 161.15625 C 197.125 159.15625 194.246094 159.457031 192.21875 161.15625 C 187.988281 164.703125 181.429688 163.898438 177.972656 159.601562 C 177.078125 158.492188 176.4375 157.242188 176.019531 155.929688 C 184.1875 155.386719 194.464844 155.171875 198.71875 146.941406 Z M 190.5625 140.382812 C 190.5625 140.460938 190.566406 140.550781 190.566406 140.65625 C 190.386719 141.351562 190.289062 142.25 189.746094 142.933594 C 188.902344 143.992188 187.613281 144.535156 186.339844 144.910156 C 183.296875 145.8125 180.03125 145.933594 176.84375 146.113281 C 177.421875 144.929688 178.175781 143.835938 179.085938 142.882812 C 180.953125 140.933594 183.613281 139.417969 186.015625 139.164062 C 187.300781 139.03125 188.3125 139.058594 189.546875 139.578125 C 189.820312 139.695312 190.644531 140.171875 190.394531 140.039062 C 190.453125 140.132812 190.5 140.210938 190.539062 140.277344 C 190.542969 140.03125 190.550781 140.042969 190.558594 140.316406 C 190.703125 140.5625 190.703125 140.585938 190.5625 140.382812 Z M 190.5625 140.382812 " fill-opacity="1" fill-rule="nonzero"/><g clip-path="url(#35276ad4f8)"><path fill="#ffffff" d="M 364.035156 134.5 C 363.050781 128.707031 361.066406 122.386719 357.726562 117.488281 C 352.664062 110.0625 345.160156 104.402344 337.71875 99.542969 C 315.671875 85.136719 289.496094 76.445312 263.46875 73.144531 C 233.601562 69.355469 202.054688 74.183594 176.875 91.449219 C 176.539062 91.679688 176.214844 91.917969 175.882812 92.152344 C 177.605469 87.070312 179.472656 82.0625 181.65625 77.242188 C 182.746094 74.839844 182.347656 71.984375 179.902344 70.554688 C 177.808594 69.332031 174.3125 69.894531 173.21875 72.308594 C 167.90625 84.039062 164.277344 96.464844 160.324219 108.695312 C 159.269531 111.953125 162.867188 116.144531 166.332031 114.703125 C 176.402344 110.511719 187.300781 109.898438 198.0625 109.382812 C 200.699219 109.253906 202.949219 107.226562 202.949219 104.496094 C 202.949219 101.949219 200.710938 99.480469 198.0625 99.609375 C 192.148438 99.894531 186.125 100.199219 180.203125 101.027344 C 199.894531 86.90625 223.824219 81.105469 247.917969 81.71875 C 260.867188 82.050781 272.757812 83.945312 285.417969 87.34375 C 291.371094 88.945312 297.25 90.84375 303.015625 93.027344 C 304.269531 93.5 305.515625 93.988281 306.757812 94.488281 C 307.445312 94.765625 308.132812 95.050781 308.816406 95.335938 C 308.820312 95.339844 308.824219 95.339844 308.828125 95.339844 C 308.863281 95.355469 308.921875 95.382812 309.007812 95.417969 C 309.382812 95.578125 309.753906 95.738281 310.128906 95.902344 C 312.746094 97.042969 315.332031 98.246094 317.890625 99.515625 C 322.460938 101.785156 326.9375 104.261719 331.253906 106.992188 C 333.242188 108.25 335.203125 109.566406 337.113281 110.945312 C 337.804688 111.445312 338.484375 111.957031 339.164062 112.472656 C 339.367188 112.632812 339.898438 113.050781 340.015625 113.140625 C 340.460938 113.5 340.902344 113.863281 341.339844 114.230469 C 344.046875 116.507812 346.25 119.101562 348.710938 121.601562 C 348.738281 121.640625 348.769531 121.679688 348.800781 121.726562 C 348.984375 121.992188 349.175781 122.25 349.355469 122.515625 C 349.734375 123.078125 350.09375 123.652344 350.417969 124.246094 C 351.71875 126.609375 352.597656 129.246094 353.367188 131.824219 C 354.339844 135.074219 354.808594 137.40625 354.925781 140.308594 C 354.976562 141.597656 354.941406 142.878906 354.839844 144.160156 C 354.824219 144.367188 354.800781 144.574219 354.777344 144.78125 C 354.765625 144.84375 354.757812 144.90625 354.746094 144.949219 C 354.597656 145.597656 354.496094 146.257812 354.332031 146.90625 C 354.203125 147.402344 354.0625 147.894531 353.902344 148.382812 C 353.855469 148.523438 353.601562 149.207031 353.496094 149.511719 C 353.367188 149.78125 353.066406 150.441406 353 150.570312 C 352.738281 151.082031 352.457031 151.582031 352.15625 152.070312 C 351.921875 152.453125 351.679688 152.828125 351.421875 153.195312 C 351.226562 153.476562 350.898438 153.871094 350.890625 153.878906 C 350.382812 154.46875 349.875 155.050781 349.316406 155.601562 C 348.683594 156.226562 348 156.785156 347.328125 157.371094 C 347.324219 157.371094 347.324219 157.375 347.320312 157.375 C 347.285156 157.402344 347.246094 157.425781 347.199219 157.460938 C 346.828125 157.714844 346.464844 157.976562 346.085938 158.226562 C 344.925781 158.988281 343.710938 159.664062 342.457031 160.261719 C 342.238281 160.367188 342.011719 160.460938 341.792969 160.566406 C 341.4375 160.699219 341.085938 160.839844 340.726562 160.964844 C 340.316406 161.109375 339.898438 161.21875 339.484375 161.355469 C 336.226562 162.449219 333.011719 163.703125 329.597656 163.949219 C 328.011719 164.066406 326.402344 164.0625 324.820312 163.882812 C 324.816406 163.863281 323.632812 163.664062 323.503906 163.636719 C 322.789062 163.480469 322.078125 163.289062 321.378906 163.066406 C 320.871094 162.902344 320.371094 162.710938 319.871094 162.527344 C 321.011719 162.949219 319.511719 162.347656 319.234375 162.210938 C 318.445312 161.820312 317.683594 161.382812 316.9375 160.917969 C 314.578125 159.457031 312.328125 157.433594 311.175781 154.871094 C 311.058594 154.605469 310.953125 154.335938 310.859375 154.066406 C 320.035156 153.425781 331.671875 152.863281 334.699219 142.304688 C 336.152344 137.230469 334.179688 131.917969 329.503906 129.347656 C 325.472656 127.128906 320.277344 126.980469 315.976562 128.460938 C 306.632812 131.671875 300.242188 140.957031 300.527344 150.863281 C 300.777344 159.433594 306.230469 166.320312 313.582031 170.273438 C 323.492188 175.605469 334.425781 173.925781 344.496094 169.949219 C 352.371094 166.835938 359.109375 161.222656 362.4375 153.300781 C 364.957031 147.304688 365.117188 140.84375 364.035156 134.5 Z M 348.710938 121.601562 C 348.472656 121.355469 348.296875 121.019531 348.710938 121.601562 Z M 318.285156 137.992188 C 320.09375 137.269531 324.242188 136.585938 325.355469 138.363281 C 325.320312 138.433594 325.4375 139.0625 325.402344 139.351562 C 325.433594 139.109375 325.066406 140.265625 324.996094 140.402344 C 324.429688 141.484375 323.484375 142.195312 322.171875 142.730469 C 318.976562 144.03125 315.226562 144.097656 311.726562 144.261719 C 313.136719 141.460938 315.457031 139.125 318.285156 137.992188 Z M 351.046875 153.699219 C 351.09375 153.648438 351.144531 153.589844 351.210938 153.515625 C 351.15625 153.574219 351.101562 153.636719 351.046875 153.699219 Z M 354.804688 144.605469 C 354.824219 144.429688 354.820312 144.488281 354.804688 144.605469 Z M 354.804688 144.605469 " fill-opacity="1" fill-rule="nonzero"/></g><path fill="#ffffff" d="M 225.796875 127.402344 C 224.101562 125.707031 220.527344 125.316406 218.886719 127.402344 C 214.15625 133.421875 212.171875 140.410156 211.453125 147.949219 C 210.769531 155.09375 212.484375 162.222656 217.957031 167.195312 C 223.042969 171.816406 230.21875 174.015625 236.957031 172.097656 C 244.382812 169.980469 248.339844 163.421875 250.402344 156.421875 C 252.78125 148.335938 253.554688 139.300781 250.503906 131.285156 C 249.566406 128.820312 247.210938 127.125 244.496094 127.871094 C 242.132812 128.519531 240.140625 131.402344 241.082031 133.882812 C 243.601562 140.503906 242.902344 147.484375 240.882812 154.148438 C 240.117188 156.679688 239.09375 159.53125 237 161.28125 C 235.128906 162.84375 232.519531 163.308594 230.175781 162.894531 C 225.390625 162.050781 221.632812 157.945312 221.105469 153.128906 C 220.453125 147.125 222.007812 139.128906 225.796875 134.3125 C 227.425781 132.238281 227.820312 129.425781 225.796875 127.402344 Z M 225.796875 127.402344 " fill-opacity="1" fill-rule="nonzero"/><path fill="#ffffff" d="M 279.277344 132.769531 C 281.941406 130.933594 284.8125 129.332031 287.828125 128.144531 C 290.28125 127.175781 291.992188 124.871094 291.238281 122.132812 C 290.597656 119.796875 287.699219 117.75 285.230469 118.71875 C 279.488281 120.984375 273.3125 124.011719 269.101562 128.667969 C 264.535156 133.71875 263.683594 140.242188 267.03125 146.222656 C 268.484375 148.820312 270.601562 151.011719 272.792969 152.996094 C 274.726562 154.742188 276.980469 156.410156 278.46875 158.574219 C 278.917969 159.226562 279.390625 160.230469 279.472656 160.742188 C 279.582031 161.425781 279.476562 161.417969 279.191406 161.636719 C 277.136719 163.246094 273.417969 163.417969 270.933594 163.394531 C 264.644531 163.34375 264.640625 173.117188 270.933594 173.167969 C 277.207031 173.21875 286.414062 171.429688 288.6875 164.617188 C 290.777344 158.367188 286.777344 152.539062 282.386719 148.484375 C 279.738281 146.039062 273.234375 141.75 274.863281 137.367188 C 275.597656 135.402344 277.609375 133.921875 279.277344 132.769531 Z M 279.277344 132.769531 " fill-opacity="1" fill-rule="nonzero"/><g clip-path="url(#cfafd2dd5c)"><path fill="#ffffff" d="M 315.433594 189.355469 C 304.617188 190.761719 293.941406 188.511719 283.417969 186.195312 C 280.84375 185.628906 278.132812 186.972656 277.40625 189.609375 C 276.734375 192.054688 278.230469 195.050781 280.820312 195.621094 C 285.71875 196.695312 290.691406 197.78125 295.707031 198.542969 C 283.816406 203.269531 271.363281 206.601562 258.644531 207.984375 C 243.535156 209.628906 228.5 208.773438 213.925781 205.492188 C 191.917969 200.53125 172.132812 190.910156 153.738281 177.488281 C 152.917969 176.890625 152.105469 176.285156 151.296875 175.671875 C 150.902344 175.378906 150.515625 175.078125 150.125 174.78125 C 150.089844 174.757812 150.066406 174.738281 150.039062 174.71875 C 150.003906 174.691406 149.96875 174.660156 149.921875 174.625 C 147.011719 172.335938 144.320312 169.738281 141.683594 167.140625 C 139.28125 164.769531 137.082031 162.230469 134.914062 159.65625 C 138.261719 158.644531 141.496094 157.269531 144.570312 155.46875 C 150.09375 152.234375 156.082031 147.46875 158.753906 141.492188 C 164.480469 128.675781 153.746094 115.335938 141.179688 112.757812 C 135.738281 111.640625 130.027344 112.042969 124.898438 114.074219 C 123.957031 113.097656 122.621094 112.46875 121.300781 112.46875 C 118.5 112.46875 116.601562 114.710938 116.414062 117.351562 C 115.082031 136.261719 114.617188 155.214844 115.027344 174.164062 C 115.160156 180.445312 124.933594 180.464844 124.796875 174.164062 C 124.714844 170.308594 124.675781 166.449219 124.667969 162.59375 C 127.566406 166.046875 130.375 169.582031 133.53125 172.804688 C 137.640625 177 142.007812 180.839844 146.695312 184.359375 C 154.210938 190.007812 162.148438 195.089844 170.449219 199.507812 C 196.007812 213.105469 224.988281 220.363281 254 218.183594 C 270.46875 216.945312 286.449219 212.867188 301.628906 206.625 C 298.234375 211.761719 294.699219 216.800781 290.796875 221.53125 C 289.117188 223.566406 288.804688 226.449219 290.796875 228.441406 C 292.523438 230.171875 296.015625 230.488281 297.707031 228.441406 C 305.898438 218.515625 312.640625 207.46875 319.652344 196.707031 C 321.511719 193.855469 319.125 188.875 315.433594 189.355469 Z M 140.183594 122.566406 C 145.082031 123.945312 149.527344 127.679688 150.503906 132.851562 C 151.445312 137.847656 146.566406 142.3125 142.574219 145.136719 C 137.675781 148.601562 131.949219 151.019531 125.964844 151.722656 C 125.527344 151.773438 125.113281 151.871094 124.722656 152 C 124.855469 142.855469 125.183594 133.714844 125.71875 124.585938 C 130.078125 121.9375 135.214844 121.164062 140.183594 122.566406 Z M 140.183594 122.566406 " fill-opacity="1" fill-rule="nonzero"/></g></svg>