<svg xmlns="http://www.w3.org/2000/svg" xmlns:xlink="http://www.w3.org/1999/xlink" width="160" zoomAndPan="magnify" viewBox="0 0 120 30.000001" height="40" preserveAspectRatio="xMidYMid meet" version="1.0"><defs><g/></defs><g fill="#000000" fill-opacity="1"><g transform="translate(2.703886, 22.070415)"><g><path d="M 15.546875 -1.515625 C 15.546875 -0.910156 15.453125 -0.472656 15.265625 -0.203125 C 15.085938 0.0664062 14.78125 0.203125 14.34375 0.203125 C 13.90625 0.203125 13.59375 0.0664062 13.40625 -0.203125 C 13.226562 -0.472656 13.140625 -0.921875 13.140625 -1.546875 L 13.140625 -14.609375 C 13.140625 -15.046875 13.109375 -15.398438 13.046875 -15.671875 C 12.992188 -15.953125 12.878906 -16.164062 12.703125 -16.3125 C 12.535156 -16.46875 12.296875 -16.570312 11.984375 -16.625 C 11.679688 -16.6875 11.28125 -16.71875 10.78125 -16.71875 L 5.96875 -16.71875 C 5.53125 -16.71875 5.164062 -16.6875 4.875 -16.625 C 4.59375 -16.570312 4.367188 -16.476562 4.203125 -16.34375 C 4.035156 -16.21875 3.921875 -16.039062 3.859375 -15.8125 C 3.804688 -15.582031 3.78125 -15.296875 3.78125 -14.953125 L 3.78125 -13.890625 C 3.78125 -13.179688 3.828125 -12.6875 3.921875 -12.40625 C 4.023438 -12.125 4.238281 -11.921875 4.5625 -11.796875 L 4.875 -11.640625 C 5.257812 -11.492188 5.519531 -11.285156 5.65625 -11.015625 C 5.789062 -10.742188 5.859375 -10.273438 5.859375 -9.609375 L 5.859375 -2.8125 C 5.859375 -2.257812 5.820312 -1.800781 5.75 -1.4375 C 5.6875 -1.070312 5.570312 -0.785156 5.40625 -0.578125 C 5.238281 -0.367188 5.007812 -0.21875 4.71875 -0.125 C 4.4375 -0.0390625 4.078125 0 3.640625 0 C 2.992188 0 2.5 -0.0859375 2.15625 -0.265625 C 1.820312 -0.453125 1.597656 -0.738281 1.484375 -1.125 C 1.429688 -1.289062 1.394531 -1.503906 1.375 -1.765625 C 1.351562 -2.023438 1.34375 -2.398438 1.34375 -2.890625 L 1.34375 -16.203125 C 1.34375 -16.816406 1.375 -17.316406 1.4375 -17.703125 C 1.507812 -18.085938 1.640625 -18.382812 1.828125 -18.59375 C 2.023438 -18.800781 2.300781 -18.941406 2.65625 -19.015625 C 3.007812 -19.097656 3.460938 -19.140625 4.015625 -19.140625 L 12.65625 -19.140625 C 13.25 -19.140625 13.726562 -19.101562 14.09375 -19.03125 C 14.46875 -18.96875 14.765625 -18.835938 14.984375 -18.640625 C 15.203125 -18.453125 15.347656 -18.1875 15.421875 -17.84375 C 15.503906 -17.5 15.546875 -17.0625 15.546875 -16.53125 Z M 15.546875 -1.515625 "/></g></g></g><g fill="#000000" fill-opacity="1"><g transform="translate(19.569058, 22.070415)"><g><path d="M 11.671875 -2.203125 C 11.671875 -1.722656 11.640625 -1.335938 11.578125 -1.046875 C 11.523438 -0.765625 11.421875 -0.539062 11.265625 -0.375 C 11.117188 -0.21875 10.898438 -0.113281 10.609375 -0.0625 C 10.328125 -0.0195312 9.945312 0 9.46875 0 L 3.359375 0 C 2.898438 0 2.519531 -0.0234375 2.21875 -0.078125 C 1.925781 -0.140625 1.703125 -0.242188 1.546875 -0.390625 C 1.390625 -0.546875 1.28125 -0.769531 1.21875 -1.0625 C 1.164062 -1.363281 1.140625 -1.742188 1.140625 -2.203125 L 1.140625 -5.875 C 1.140625 -6.375 1.164062 -6.769531 1.21875 -7.0625 C 1.269531 -7.363281 1.375 -7.59375 1.53125 -7.75 C 1.695312 -7.914062 1.921875 -8.019531 2.203125 -8.0625 C 2.492188 -8.113281 2.878906 -8.140625 3.359375 -8.140625 L 8.0625 -8.140625 C 8.382812 -8.140625 8.644531 -8.160156 8.84375 -8.203125 C 9.050781 -8.242188 9.207031 -8.316406 9.3125 -8.421875 C 9.414062 -8.523438 9.484375 -8.675781 9.515625 -8.875 C 9.554688 -9.082031 9.578125 -9.347656 9.578125 -9.671875 L 9.578125 -9.921875 C 9.578125 -10.242188 9.5625 -10.503906 9.53125 -10.703125 C 9.507812 -10.910156 9.445312 -11.066406 9.34375 -11.171875 C 9.238281 -11.273438 9.082031 -11.34375 8.875 -11.375 C 8.675781 -11.40625 8.40625 -11.421875 8.0625 -11.421875 L 4.625 -11.421875 C 4.144531 -11.421875 3.8125 -11.367188 3.625 -11.265625 C 3.445312 -11.171875 3.335938 -10.960938 3.296875 -10.640625 L 3.234375 -10.234375 C 3.140625 -9.609375 2.796875 -9.296875 2.203125 -9.296875 C 1.804688 -9.296875 1.53125 -9.410156 1.375 -9.640625 C 1.21875 -9.867188 1.140625 -10.289062 1.140625 -10.90625 L 1.140625 -11.25 C 1.140625 -11.738281 1.164062 -12.128906 1.21875 -12.421875 C 1.269531 -12.722656 1.375 -12.957031 1.53125 -13.125 C 1.695312 -13.289062 1.921875 -13.394531 2.203125 -13.4375 C 2.492188 -13.488281 2.878906 -13.515625 3.359375 -13.515625 L 9.5 -13.515625 C 9.976562 -13.515625 10.359375 -13.488281 10.640625 -13.4375 C 10.929688 -13.394531 11.148438 -13.289062 11.296875 -13.125 C 11.453125 -12.957031 11.550781 -12.722656 11.59375 -12.421875 C 11.644531 -12.128906 11.671875 -11.738281 11.671875 -11.25 Z M 6.625 -6.046875 C 5.976562 -6.046875 5.5625 -5.957031 5.375 -5.78125 C 5.195312 -5.601562 5.109375 -5.1875 5.109375 -4.53125 L 5.109375 -3.609375 C 5.109375 -3.265625 5.117188 -2.992188 5.140625 -2.796875 C 5.171875 -2.597656 5.242188 -2.445312 5.359375 -2.34375 C 5.472656 -2.238281 5.628906 -2.171875 5.828125 -2.140625 C 6.035156 -2.109375 6.3125 -2.09375 6.65625 -2.09375 L 8.0625 -2.09375 C 8.382812 -2.09375 8.644531 -2.109375 8.84375 -2.140625 C 9.050781 -2.179688 9.207031 -2.253906 9.3125 -2.359375 C 9.414062 -2.472656 9.484375 -2.625 9.515625 -2.8125 C 9.554688 -3 9.578125 -3.253906 9.578125 -3.578125 L 9.578125 -4.453125 C 9.578125 -4.804688 9.5625 -5.085938 9.53125 -5.296875 C 9.507812 -5.515625 9.445312 -5.679688 9.34375 -5.796875 C 9.238281 -5.910156 9.082031 -5.976562 8.875 -6 C 8.675781 -6.03125 8.40625 -6.046875 8.0625 -6.046875 Z M 6.625 -6.046875 "/></g></g></g><g fill="#000000" fill-opacity="1"><g transform="translate(32.390022, 22.070415)"><g><path d="M 5.140625 -2.4375 C 5.140625 -1.9375 5.113281 -1.53125 5.0625 -1.21875 C 5.007812 -0.90625 4.910156 -0.65625 4.765625 -0.46875 C 4.628906 -0.289062 4.4375 -0.164062 4.1875 -0.09375 C 3.9375 -0.03125 3.613281 0 3.21875 0 C 2.625 0 2.195312 -0.0507812 1.9375 -0.15625 C 1.675781 -0.257812 1.46875 -0.46875 1.3125 -0.78125 C 1.238281 -0.925781 1.191406 -1.109375 1.171875 -1.328125 C 1.148438 -1.546875 1.140625 -1.914062 1.140625 -2.4375 L 1.140625 -11.25 C 1.140625 -11.738281 1.164062 -12.128906 1.21875 -12.421875 C 1.269531 -12.722656 1.375 -12.957031 1.53125 -13.125 C 1.695312 -13.289062 1.921875 -13.394531 2.203125 -13.4375 C 2.492188 -13.488281 2.878906 -13.515625 3.359375 -13.515625 L 7 -13.515625 C 7.664062 -13.515625 8.128906 -13.4375 8.390625 -13.28125 C 8.648438 -13.125 8.78125 -12.859375 8.78125 -12.484375 C 8.78125 -12.054688 8.648438 -11.769531 8.390625 -11.625 C 8.128906 -11.488281 7.664062 -11.421875 7 -11.421875 L 4.765625 -11.421875 C 4.109375 -11.421875 3.6875 -11.328125 3.5 -11.140625 C 3.320312 -10.960938 3.234375 -10.546875 3.234375 -9.890625 L 3.234375 -9.75 C 3.234375 -9.289062 3.289062 -8.976562 3.40625 -8.8125 C 3.519531 -8.65625 3.78125 -8.53125 4.1875 -8.4375 C 4.59375 -8.320312 4.851562 -8.164062 4.96875 -7.96875 C 5.082031 -7.78125 5.140625 -7.398438 5.140625 -6.828125 Z M 5.140625 -2.4375 "/></g></g></g><g fill="#000000" fill-opacity="1"><g transform="translate(41.539657, 22.070415)"><g><path d="M 11.671875 -8.296875 C 11.671875 -7.835938 11.640625 -7.457031 11.578125 -7.15625 C 11.523438 -6.863281 11.421875 -6.640625 11.265625 -6.484375 C 11.117188 -6.328125 10.898438 -6.21875 10.609375 -6.15625 C 10.328125 -6.101562 9.945312 -6.078125 9.46875 -6.078125 L 6.625 -6.078125 C 5.976562 -6.078125 5.5625 -5.984375 5.375 -5.796875 C 5.195312 -5.617188 5.109375 -5.207031 5.109375 -4.5625 L 5.109375 -3.640625 C 5.109375 -3.296875 5.117188 -3.023438 5.140625 -2.828125 C 5.171875 -2.628906 5.242188 -2.472656 5.359375 -2.359375 C 5.472656 -2.253906 5.628906 -2.1875 5.828125 -2.15625 C 6.035156 -2.132812 6.3125 -2.125 6.65625 -2.125 L 8.34375 -2.125 C 8.769531 -2.125 9.066406 -2.191406 9.234375 -2.328125 C 9.410156 -2.460938 9.515625 -2.703125 9.546875 -3.046875 L 9.609375 -3.53125 C 9.671875 -4.175781 10.003906 -4.5 10.609375 -4.5 C 11.316406 -4.5 11.671875 -4.003906 11.671875 -3.015625 L 11.671875 -2.203125 C 11.671875 -1.722656 11.640625 -1.335938 11.578125 -1.046875 C 11.523438 -0.765625 11.421875 -0.539062 11.265625 -0.375 C 11.117188 -0.21875 10.898438 -0.113281 10.609375 -0.0625 C 10.328125 -0.0195312 9.945312 0 9.46875 0 L 3.359375 0 C 2.898438 0 2.519531 -0.0195312 2.21875 -0.0625 C 1.925781 -0.113281 1.703125 -0.21875 1.546875 -0.375 C 1.390625 -0.539062 1.28125 -0.765625 1.21875 -1.046875 C 1.164062 -1.335938 1.140625 -1.722656 1.140625 -2.203125 L 1.140625 -11.25 C 1.140625 -11.738281 1.164062 -12.128906 1.21875 -12.421875 C 1.269531 -12.722656 1.375 -12.957031 1.53125 -13.125 C 1.695312 -13.289062 1.921875 -13.394531 2.203125 -13.4375 C 2.492188 -13.488281 2.878906 -13.515625 3.359375 -13.515625 L 9.46875 -13.515625 C 9.945312 -13.515625 10.332031 -13.488281 10.625 -13.4375 C 10.925781 -13.394531 11.148438 -13.289062 11.296875 -13.125 C 11.453125 -12.957031 11.550781 -12.722656 11.59375 -12.421875 C 11.644531 -12.128906 11.671875 -11.738281 11.671875 -11.25 Z M 9.578125 -9.921875 C 9.578125 -10.578125 9.484375 -10.992188 9.296875 -11.171875 C 9.117188 -11.359375 8.707031 -11.453125 8.0625 -11.453125 L 4.765625 -11.453125 C 4.421875 -11.453125 4.144531 -11.4375 3.9375 -11.40625 C 3.738281 -11.375 3.585938 -11.304688 3.484375 -11.203125 C 3.378906 -11.097656 3.3125 -10.941406 3.28125 -10.734375 C 3.25 -10.535156 3.234375 -10.265625 3.234375 -9.921875 L 3.234375 -9.71875 C 3.234375 -9.375 3.25 -9.101562 3.28125 -8.90625 C 3.3125 -8.707031 3.378906 -8.550781 3.484375 -8.4375 C 3.585938 -8.320312 3.738281 -8.25 3.9375 -8.21875 C 4.144531 -8.1875 4.421875 -8.171875 4.765625 -8.171875 L 8.0625 -8.171875 C 8.707031 -8.171875 9.117188 -8.257812 9.296875 -8.4375 C 9.484375 -8.625 9.578125 -9.050781 9.578125 -9.71875 Z M 9.578125 -9.921875 "/></g></g></g><g fill="#000000" fill-opacity="1"><g transform="translate(54.360622, 22.070415)"><g><path d="M 9.46875 -13.515625 C 9.945312 -13.515625 10.328125 -13.488281 10.609375 -13.4375 C 10.898438 -13.394531 11.125 -13.289062 11.28125 -13.125 C 11.445312 -12.957031 11.550781 -12.722656 11.59375 -12.421875 C 11.644531 -12.128906 11.671875 -11.738281 11.671875 -11.25 L 11.671875 -1.78125 C 11.671875 -1.113281 11.59375 -0.648438 11.4375 -0.390625 C 11.289062 -0.128906 11.015625 0 10.609375 0 C 10.210938 0 9.941406 -0.125 9.796875 -0.375 C 9.648438 -0.625 9.578125 -1.082031 9.578125 -1.75 L 9.578125 -9.921875 C 9.578125 -10.578125 9.484375 -10.992188 9.296875 -11.171875 C 9.117188 -11.359375 8.707031 -11.453125 8.0625 -11.453125 L 4.796875 -11.453125 C 4.140625 -11.453125 3.71875 -11.359375 3.53125 -11.171875 C 3.351562 -10.992188 3.265625 -10.578125 3.265625 -9.921875 L 3.265625 -9.125 C 3.265625 -8.664062 3.320312 -8.351562 3.4375 -8.1875 C 3.550781 -8.03125 3.8125 -7.898438 4.21875 -7.796875 C 4.613281 -7.679688 4.867188 -7.53125 4.984375 -7.34375 C 5.097656 -7.15625 5.15625 -6.773438 5.15625 -6.203125 L 5.15625 -2.4375 C 5.15625 -1.9375 5.128906 -1.53125 5.078125 -1.21875 C 5.035156 -0.90625 4.941406 -0.65625 4.796875 -0.46875 C 4.660156 -0.289062 4.46875 -0.164062 4.21875 -0.09375 C 3.96875 -0.03125 3.640625 0 3.234375 0 C 2.628906 0 2.195312 -0.0507812 1.9375 -0.15625 C 1.675781 -0.257812 1.46875 -0.46875 1.3125 -0.78125 C 1.238281 -0.925781 1.191406 -1.109375 1.171875 -1.328125 C 1.148438 -1.546875 1.140625 -1.914062 1.140625 -2.4375 L 1.140625 -11.25 C 1.140625 -11.738281 1.164062 -12.128906 1.21875 -12.421875 C 1.269531 -12.722656 1.375 -12.957031 1.53125 -13.125 C 1.695312 -13.289062 1.921875 -13.394531 2.203125 -13.4375 C 2.492188 -13.488281 2.878906 -13.515625 3.359375 -13.515625 Z M 9.46875 -13.515625 "/></g></g></g><g fill="#000000" fill-opacity="1"><g transform="translate(67.181586, 22.070415)"><g><path d="M 11.671875 2.78125 C 11.671875 3.238281 11.640625 3.609375 11.578125 3.890625 C 11.523438 4.179688 11.414062 4.40625 11.25 4.5625 C 11.09375 4.71875 10.863281 4.820312 10.5625 4.875 C 10.269531 4.9375 9.882812 4.96875 9.40625 4.96875 L 2.921875 4.96875 C 2.253906 4.96875 1.796875 4.894531 1.546875 4.75 C 1.296875 4.601562 1.171875 4.332031 1.171875 3.9375 C 1.171875 3.53125 1.300781 3.25 1.5625 3.09375 C 1.820312 2.945312 2.285156 2.875 2.953125 2.875 L 8.0625 2.875 C 8.695312 2.875 9.109375 2.785156 9.296875 2.609375 C 9.484375 2.441406 9.578125 2.078125 9.578125 1.515625 C 9.578125 0.867188 9.488281 0.453125 9.3125 0.265625 C 9.144531 0.0859375 8.738281 0 8.09375 0 L 3.359375 0 C 2.898438 0 2.519531 -0.0195312 2.21875 -0.0625 C 1.925781 -0.113281 1.703125 -0.21875 1.546875 -0.375 C 1.390625 -0.539062 1.28125 -0.765625 1.21875 -1.046875 C 1.164062 -1.335938 1.140625 -1.722656 1.140625 -2.203125 L 1.140625 -11.25 C 1.140625 -11.738281 1.164062 -12.128906 1.21875 -12.421875 C 1.269531 -12.722656 1.375 -12.957031 1.53125 -13.125 C 1.695312 -13.289062 1.921875 -13.394531 2.203125 -13.4375 C 2.492188 -13.488281 2.878906 -13.515625 3.359375 -13.515625 L 9.46875 -13.515625 C 9.945312 -13.515625 10.332031 -13.488281 10.625 -13.4375 C 10.925781 -13.394531 11.148438 -13.289062 11.296875 -13.125 C 11.453125 -12.957031 11.550781 -12.722656 11.59375 -12.421875 C 11.644531 -12.128906 11.671875 -11.738281 11.671875 -11.25 Z M 4.765625 -11.453125 C 4.109375 -11.453125 3.6875 -11.359375 3.5 -11.171875 C 3.320312 -10.992188 3.234375 -10.578125 3.234375 -9.921875 L 3.234375 -9.125 C 3.234375 -8.664062 3.289062 -8.351562 3.40625 -8.1875 C 3.519531 -8.03125 3.78125 -7.898438 4.1875 -7.796875 C 4.59375 -7.679688 4.851562 -7.53125 4.96875 -7.34375 C 5.082031 -7.15625 5.140625 -6.773438 5.140625 -6.203125 L 5.140625 -3.609375 C 5.140625 -3.265625 5.148438 -2.992188 5.171875 -2.796875 C 5.203125 -2.597656 5.273438 -2.445312 5.390625 -2.34375 C 5.503906 -2.238281 5.660156 -2.171875 5.859375 -2.140625 C 6.066406 -2.109375 6.34375 -2.09375 6.6875 -2.09375 L 8.0625 -2.09375 C 8.382812 -2.09375 8.644531 -2.109375 8.84375 -2.140625 C 9.050781 -2.179688 9.210938 -2.253906 9.328125 -2.359375 C 9.441406 -2.472656 9.515625 -2.628906 9.546875 -2.828125 C 9.585938 -3.023438 9.609375 -3.285156 9.609375 -3.609375 L 9.609375 -9.921875 C 9.609375 -10.578125 9.515625 -10.992188 9.328125 -11.171875 C 9.148438 -11.359375 8.738281 -11.453125 8.09375 -11.453125 Z M 4.765625 -11.453125 "/></g></g></g><g fill="#000000" fill-opacity="1"><g transform="translate(80.00255, 22.070415)"><g><path d="M 11.671875 -2.203125 C 11.671875 -1.722656 11.640625 -1.335938 11.578125 -1.046875 C 11.523438 -0.765625 11.421875 -0.539062 11.265625 -0.375 C 11.117188 -0.21875 10.898438 -0.113281 10.609375 -0.0625 C 10.328125 -0.0195312 9.945312 0 9.46875 0 L 3.359375 0 C 2.898438 0 2.519531 -0.0234375 2.21875 -0.078125 C 1.925781 -0.140625 1.703125 -0.242188 1.546875 -0.390625 C 1.390625 -0.546875 1.28125 -0.769531 1.21875 -1.0625 C 1.164062 -1.363281 1.140625 -1.742188 1.140625 -2.203125 L 1.140625 -5.875 C 1.140625 -6.375 1.164062 -6.769531 1.21875 -7.0625 C 1.269531 -7.363281 1.375 -7.59375 1.53125 -7.75 C 1.695312 -7.914062 1.921875 -8.019531 2.203125 -8.0625 C 2.492188 -8.113281 2.878906 -8.140625 3.359375 -8.140625 L 8.0625 -8.140625 C 8.382812 -8.140625 8.644531 -8.160156 8.84375 -8.203125 C 9.050781 -8.242188 9.207031 -8.316406 9.3125 -8.421875 C 9.414062 -8.523438 9.484375 -8.675781 9.515625 -8.875 C 9.554688 -9.082031 9.578125 -9.347656 9.578125 -9.671875 L 9.578125 -9.921875 C 9.578125 -10.242188 9.5625 -10.503906 9.53125 -10.703125 C 9.507812 -10.910156 9.445312 -11.066406 9.34375 -11.171875 C 9.238281 -11.273438 9.082031 -11.34375 8.875 -11.375 C 8.675781 -11.40625 8.40625 -11.421875 8.0625 -11.421875 L 4.625 -11.421875 C 4.144531 -11.421875 3.8125 -11.367188 3.625 -11.265625 C 3.445312 -11.171875 3.335938 -10.960938 3.296875 -10.640625 L 3.234375 -10.234375 C 3.140625 -9.609375 2.796875 -9.296875 2.203125 -9.296875 C 1.804688 -9.296875 1.53125 -9.410156 1.375 -9.640625 C 1.21875 -9.867188 1.140625 -10.289062 1.140625 -10.90625 L 1.140625 -11.25 C 1.140625 -11.738281 1.164062 -12.128906 1.21875 -12.421875 C 1.269531 -12.722656 1.375 -12.957031 1.53125 -13.125 C 1.695312 -13.289062 1.921875 -13.394531 2.203125 -13.4375 C 2.492188 -13.488281 2.878906 -13.515625 3.359375 -13.515625 L 9.5 -13.515625 C 9.976562 -13.515625 10.359375 -13.488281 10.640625 -13.4375 C 10.929688 -13.394531 11.148438 -13.289062 11.296875 -13.125 C 11.453125 -12.957031 11.550781 -12.722656 11.59375 -12.421875 C 11.644531 -12.128906 11.671875 -11.738281 11.671875 -11.25 Z M 6.625 -6.046875 C 5.976562 -6.046875 5.5625 -5.957031 5.375 -5.78125 C 5.195312 -5.601562 5.109375 -5.1875 5.109375 -4.53125 L 5.109375 -3.609375 C 5.109375 -3.265625 5.117188 -2.992188 5.140625 -2.796875 C 5.171875 -2.597656 5.242188 -2.445312 5.359375 -2.34375 C 5.472656 -2.238281 5.628906 -2.171875 5.828125 -2.140625 C 6.035156 -2.109375 6.3125 -2.09375 6.65625 -2.09375 L 8.0625 -2.09375 C 8.382812 -2.09375 8.644531 -2.109375 8.84375 -2.140625 C 9.050781 -2.179688 9.207031 -2.253906 9.3125 -2.359375 C 9.414062 -2.472656 9.484375 -2.625 9.515625 -2.8125 C 9.554688 -3 9.578125 -3.253906 9.578125 -3.578125 L 9.578125 -4.453125 C 9.578125 -4.804688 9.5625 -5.085938 9.53125 -5.296875 C 9.507812 -5.515625 9.445312 -5.679688 9.34375 -5.796875 C 9.238281 -5.910156 9.082031 -5.976562 8.875 -6 C 8.675781 -6.03125 8.40625 -6.046875 8.0625 -6.046875 Z M 6.625 -6.046875 "/></g></g></g><g fill="#000000" fill-opacity="1"><g transform="translate(92.823514, 22.070415)"><g><path d="M 11.328125 -6.71875 C 11.328125 -6.144531 11.269531 -5.757812 11.15625 -5.5625 C 11.039062 -5.375 10.785156 -5.222656 10.390625 -5.109375 C 9.984375 -5.015625 9.726562 -4.882812 9.625 -4.71875 C 9.519531 -4.550781 9.46875 -4.238281 9.46875 -3.78125 L 9.46875 -2.203125 C 9.46875 -1.722656 9.4375 -1.335938 9.375 -1.046875 C 9.320312 -0.765625 9.210938 -0.539062 9.046875 -0.375 C 8.890625 -0.21875 8.664062 -0.113281 8.375 -0.0625 C 8.09375 -0.0195312 7.710938 0 7.234375 0 L 4.875 0 C 4.394531 0 4.007812 -0.0195312 3.71875 -0.0625 C 3.4375 -0.113281 3.210938 -0.21875 3.046875 -0.375 C 2.890625 -0.539062 2.78125 -0.765625 2.71875 -1.046875 C 2.664062 -1.335938 2.640625 -1.722656 2.640625 -2.203125 L 2.640625 -3.8125 C 2.640625 -4.289062 2.585938 -4.601562 2.484375 -4.75 C 2.378906 -4.90625 2.125 -5.039062 1.71875 -5.15625 C 1.320312 -5.257812 1.066406 -5.410156 0.953125 -5.609375 C 0.835938 -5.804688 0.78125 -6.191406 0.78125 -6.765625 L 0.78125 -11.125 C 0.78125 -11.644531 0.800781 -12.0625 0.84375 -12.375 C 0.894531 -12.695312 0.988281 -12.941406 1.125 -13.109375 C 1.269531 -13.285156 1.460938 -13.40625 1.703125 -13.46875 C 1.941406 -13.53125 2.265625 -13.5625 2.671875 -13.5625 C 3.273438 -13.5625 3.707031 -13.507812 3.96875 -13.40625 C 4.226562 -13.300781 4.425781 -13.109375 4.5625 -12.828125 C 4.632812 -12.671875 4.6875 -12.484375 4.71875 -12.265625 C 4.75 -12.046875 4.765625 -11.664062 4.765625 -11.125 L 4.765625 -3.640625 C 4.765625 -3.023438 4.84375 -2.617188 5 -2.421875 C 5.164062 -2.222656 5.5 -2.125 6 -2.125 C 6.550781 -2.125 6.914062 -2.21875 7.09375 -2.40625 C 7.28125 -2.601562 7.375 -3.003906 7.375 -3.609375 L 7.375 -5.453125 C 7.375 -5.910156 7.425781 -6.21875 7.53125 -6.375 C 7.632812 -6.539062 7.890625 -6.671875 8.296875 -6.765625 C 8.691406 -6.878906 8.945312 -7.035156 9.0625 -7.234375 C 9.175781 -7.441406 9.234375 -7.820312 9.234375 -8.375 L 9.234375 -11.8125 C 9.234375 -12.488281 9.3125 -12.945312 9.46875 -13.1875 C 9.625 -13.4375 9.898438 -13.5625 10.296875 -13.5625 C 10.703125 -13.5625 10.972656 -13.4375 11.109375 -13.1875 C 11.253906 -12.945312 11.328125 -12.488281 11.328125 -11.8125 Z M 11.328125 -6.71875 "/></g></g></g><g fill="#000000" fill-opacity="1"><g transform="translate(104.927429, 22.070415)"><g><path d="M 5.140625 -2.4375 C 5.140625 -1.9375 5.113281 -1.53125 5.0625 -1.21875 C 5.007812 -0.90625 4.910156 -0.65625 4.765625 -0.46875 C 4.628906 -0.289062 4.4375 -0.164062 4.1875 -0.09375 C 3.9375 -0.03125 3.613281 0 3.21875 0 C 2.625 0 2.195312 -0.0507812 1.9375 -0.15625 C 1.675781 -0.257812 1.46875 -0.46875 1.3125 -0.78125 C 1.238281 -0.925781 1.191406 -1.109375 1.171875 -1.328125 C 1.148438 -1.546875 1.140625 -1.914062 1.140625 -2.4375 L 1.140625 -17.4375 C 1.140625 -18.113281 1.21875 -18.570312 1.375 -18.8125 C 1.53125 -19.0625 1.804688 -19.1875 2.203125 -19.1875 C 2.585938 -19.1875 2.851562 -19.0625 3 -18.8125 C 3.15625 -18.570312 3.234375 -18.113281 3.234375 -17.4375 L 3.234375 -14.921875 C 3.234375 -14.460938 3.289062 -14.148438 3.40625 -13.984375 C 3.519531 -13.816406 3.78125 -13.6875 4.1875 -13.59375 C 4.59375 -13.476562 4.851562 -13.328125 4.96875 -13.140625 C 5.082031 -12.953125 5.140625 -12.566406 5.140625 -11.984375 Z M 5.140625 -2.4375 "/></g></g></g><g fill="#000000" fill-opacity="1"><g transform="translate(111.208846, 22.070415)"><g><path d="M 5.140625 -17.4375 C 5.140625 -16.769531 5 -16.304688 4.71875 -16.046875 C 4.4375 -15.785156 3.914062 -15.65625 3.15625 -15.65625 C 2.351562 -15.65625 1.8125 -15.769531 1.53125 -16 C 1.257812 -16.238281 1.125 -16.679688 1.125 -17.328125 C 1.125 -18.015625 1.269531 -18.488281 1.5625 -18.75 C 1.863281 -19.019531 2.414062 -19.15625 3.21875 -19.15625 C 3.9375 -19.15625 4.4375 -19.035156 4.71875 -18.796875 C 5 -18.566406 5.140625 -18.113281 5.140625 -17.4375 Z M 5.140625 -2.4375 C 5.140625 -1.9375 5.113281 -1.53125 5.0625 -1.21875 C 5.007812 -0.90625 4.910156 -0.65625 4.765625 -0.46875 C 4.628906 -0.289062 4.4375 -0.164062 4.1875 -0.09375 C 3.9375 -0.03125 3.613281 0 3.21875 0 C 2.625 0 2.195312 -0.0507812 1.9375 -0.15625 C 1.675781 -0.257812 1.46875 -0.46875 1.3125 -0.78125 C 1.238281 -0.925781 1.191406 -1.109375 1.171875 -1.328125 C 1.148438 -1.546875 1.140625 -1.914062 1.140625 -2.4375 L 1.140625 -11.8125 C 1.140625 -12.488281 1.21875 -12.945312 1.375 -13.1875 C 1.53125 -13.4375 1.804688 -13.5625 2.203125 -13.5625 C 2.585938 -13.5625 2.851562 -13.4375 3 -13.1875 C 3.15625 -12.945312 3.234375 -12.488281 3.234375 -11.8125 L 3.234375 -9.75 C 3.234375 -9.289062 3.289062 -8.976562 3.40625 -8.8125 C 3.519531 -8.65625 3.78125 -8.53125 4.1875 -8.4375 C 4.59375 -8.320312 4.851562 -8.164062 4.96875 -7.96875 C 5.082031 -7.78125 5.140625 -7.398438 5.140625 -6.828125 Z M 5.140625 -2.4375 "/></g></g></g></svg>